<svg width="308" height="90" viewBox="0 0 308 90" fill="none" xmlns="http://www.w3.org/2000/svg">
<g clip-path="url(#clip0_351:15)">
<path d="M30.5599 89.973C30.4984 89.9361 30.4368 89.8744 30.3752 89.8128C29.2917 88.4698 22.6183 80.079 15.8217 69.3101C13.7778 65.8847 12.4604 63.1987 12.7066 62.5087C13.3715 60.7098 25.2286 59.724 28.8854 61.3505C29.9936 61.8433 29.9689 62.4964 29.9689 62.8783C29.9689 64.5294 29.8827 68.9404 29.8827 68.9404C29.8827 69.8522 30.6215 70.5915 31.5326 70.5915C32.4438 70.5915 33.1825 69.8522 33.1825 68.9281L33.1702 57.9128C33.1702 56.9517 32.1359 56.7176 31.9389 56.6807C30.0305 56.6683 26.1643 56.656 22.0027 56.656C12.8298 56.656 10.7859 57.038 9.22218 56.0153C5.83621 53.8221 0.320158 38.8886 0.184719 30.4854C3.01997e-05 18.6323 7.00591 8.36855 16.856 3.27982C20.9684 1.19751 25.6226 0.0269775 30.5353 0.0269775C46.1354 0.0269775 58.9774 11.8432 60.6889 27.0478V27.0847C60.9967 30.7565 40.8163 31.5451 36.8271 30.4731C36.2114 30.3129 36.0637 29.6845 36.0637 29.4135C36.0637 26.6165 36.0391 18.7555 36.0391 18.7555C36.0391 17.8437 35.3003 17.1044 34.3892 17.1044C33.478 17.1044 32.7393 17.8437 32.7393 18.7678L32.7762 33.2577C32.8008 34.1695 33.5642 34.4159 33.7735 34.4529H46.2955C52.9812 34.4529 55.7885 35.2291 57.6477 36.6584C58.8913 37.6072 59.3714 39.4307 58.9528 41.7964C55.2098 62.8167 31.4588 88.8764 30.5599 89.973ZM94.9549 40.8723C100.951 43.4475 104.657 46.3061 104.657 52.59C104.657 58.9971 99.8184 63.1371 92.3323 63.1371C86.2622 63.1371 81.3987 60.3771 78.9731 55.5717L78.5791 54.7955L85.7081 50.6432L86.176 51.4071C87.7767 54.0439 89.5743 55.1651 92.1846 55.1651C94.4255 55.1651 95.9399 54.1671 95.9399 52.6762C95.9399 51.0252 94.8441 50.4091 91.4704 48.9305L89.759 48.1912C85.1787 46.2321 80.9432 43.5091 80.9432 36.9172C80.9432 30.9906 85.4619 26.8629 91.9383 26.8629C96.8387 26.8629 100.212 28.7727 102.527 32.8634L102.958 33.6274L96.0507 38.0877L95.5705 37.2375C94.4132 35.1675 93.3296 34.7486 91.9506 34.7486C90.5101 34.7486 89.5743 35.5495 89.5743 36.794C89.5743 38.2232 90.2638 38.8516 93.2558 40.1454L94.9549 40.8723ZM145.449 42.0798L150.485 27.9842H159.128L146.323 63.7162H144.402L136.633 46.9837C136.276 46.2198 135.894 45.2711 135.574 44.3963C135.242 45.2711 134.86 46.2198 134.503 46.9961L126.426 63.7285H124.517L111.503 27.9965H120.738L125.823 42.0922C126.143 42.9916 126.475 44.0882 126.771 45.0986C127.115 44.0513 127.534 42.9177 127.965 42.0059L134.651 27.7008H136.498L143.282 42.0059C143.713 42.9177 144.131 44.0513 144.476 45.0986C144.784 44.0759 145.129 42.9793 145.449 42.0798V42.0798ZM169.2 62.6935V27.2572H177.917V62.6935H169.2ZM206.519 50.7787V42.8561H222.711V58.7383L222.378 59.0094C220.531 60.5373 215.619 63.1247 208.957 63.1247C197.728 63.1247 189.897 55.658 189.897 44.963C189.897 34.4652 197.457 26.8506 207.886 26.8506C213.612 26.8506 217.822 28.477 220.728 31.8038L221.295 32.4568L215.348 38.3711L214.707 37.7057C213.045 35.9931 211.321 34.9211 207.899 34.9211C202.567 34.9211 198.836 39.0488 198.836 44.963C198.836 51.1237 202.813 55.1035 208.982 55.1035C211.026 55.1035 213.156 54.7462 214.609 54.1794V50.7664L206.519 50.7787ZM250.722 50.7787V42.8561H266.913V58.7383L266.58 59.0094C264.721 60.5373 259.821 63.1247 253.16 63.1247C241.931 63.1247 234.1 55.658 234.1 44.963C234.1 34.4652 241.66 26.8506 252.076 26.8506C257.814 26.8506 262.012 28.477 264.918 31.8038L265.485 32.4568L259.538 38.3711L258.885 37.7057C257.223 35.9931 255.499 34.9211 252.064 34.9211C246.732 34.9211 243.002 39.0488 243.002 44.963C243.002 51.1237 246.979 55.1035 253.147 55.1035C255.191 55.1035 257.321 54.7462 258.774 54.1794V50.7664L250.722 50.7787ZM298.889 27.2572H308L295.49 50.8403V62.6935H286.724V51.3455L273.389 27.2695H283.116L289.273 38.5682C289.937 39.8004 290.627 41.4268 291.156 42.7452C291.661 41.4391 292.314 39.825 292.979 38.5806L298.889 27.2572Z" fill="#FAFAFA"/>
</g>
<defs>
<clipPath id="clip0_351:15">
<rect width="308" height="90" fill="white"/>
</clipPath>
</defs>
</svg>
